<?xml version="1.0" standalone="no"?><!DOCTYPE svg PUBLIC "-//W3C//DTD SVG 1.1//EN" "http://www.w3.org/Graphics/SVG/1.1/DTD/svg11.dtd"><svg t="1644322708907" class="icon" viewBox="0 0 1024 1024" version="1.1" xmlns="http://www.w3.org/2000/svg" p-id="5337" width="128" height="128" xmlns:xlink="http://www.w3.org/1999/xlink"><defs><style type="text/css"></style></defs><path d="M512 48.128C258.048 48.128 53.248 253.952 53.248 507.904s204.8 458.752 458.752 458.752a458.624 458.624 0 0 0 458.752-458.752c0-252.928-204.8-459.776-458.752-459.776z" fill="#0274F7" p-id="5338"></path><path d="M588.8 490.368c37.76 53.76 101.568 103.232 101.568 103.232s48.64 36.928 17.6 109.952c-30.208 72.128-142.592 34.368-142.592 34.368s-41.152-13.44-88.96-2.56c-48.64 10.944-89.792 6.784-89.792 6.784h-1.6c-9.28-0.384-56.256-5.44-70.592-69.632-15.936-71.36 56.256-109.952 61.248-116.672 5.056-6.72 41.984-31.872 66.304-72.192 24.32-40.256 96.512-72.128 146.88 6.72zM465.536 524.8v47.808H426.88c-5.056 0.64-39.488 6.272-52.032 47.04-4.16 29.312 4.224 46.976 5.888 50.304 1.664 3.392 13.44 25.216 45.312 31.04h72.192v-175.36L465.472 524.8z m85.632 50.368L516.672 576v92.288s1.664 23.488 34.432 31.872h83.072V576h-36.096v93.12H564.48s-11.712-1.664-13.44-10.88V575.168z m-86.4 24.32v72.128H435.2a30.464 30.464 0 0 1-26.88-24.32c-2.496-10.048 0.896-21.76 2.56-26.88a37.056 37.056 0 0 1 22.656-20.928h31.04z m225.664-211.456c49.536 0 62.912 48.64 62.912 64.64 0 15.872 6.72 84.736-55.36 85.568-61.248 1.664-63.744-41.152-63.744-72.192 0-32.704 6.72-78.08 56.192-78.08z m-292.032 21.76c1.728 15.168 9.28 82.304-46.976 94.08-55.36 11.712-76.352-52.928-70.464-83.136 0 0 6.72-65.472 52.032-69.632 36.032-3.392 62.912 36.096 65.408 58.752z m213.12-164.48c29.44 6.784 55.424 45.376 50.368 78.912-4.992 33.6-31.872 77.248-72.96 72.192-41.152-5.056-50.368-42.816-47.04-79.744 3.392-31.04 40.32-78.08 69.696-71.296z m-156.032-13.376c31.04 0 56.192 36.096 56.192 79.744 0 44.48-25.152 79.68-56.192 79.68-30.208 0-55.36-36.096-56.256-79.68 0-44.48 25.216-79.744 56.256-79.744z" fill="#FFFFFF" p-id="5339"></path></svg>