<?xml version="1.0" standalone="no"?><!DOCTYPE svg PUBLIC "-//W3C//DTD SVG 1.1//EN" "http://www.w3.org/Graphics/SVG/1.1/DTD/svg11.dtd"><svg t="1635904096458" class="icon" viewBox="0 0 1024 1024" version="1.1" xmlns="http://www.w3.org/2000/svg" p-id="5660" width="64" height="64" xmlns:xlink="http://www.w3.org/1999/xlink"><defs><style type="text/css"></style></defs><path d="M512.098 512.711m-447.885 0a447.885 447.885 0 1 0 895.77 0 447.885 447.885 0 1 0-895.77 0Z" fill="#f4ea2a" p-id="5661" data-spm-anchor-id="a313x.7781069.0.i1" class=""></path><path d="M792.026 512.711c0-139.141-125.328-251.936-279.928-251.936S232.169 373.57 232.169 512.711c0 133.93 116.209 243.142 262.781 251.156 9.633 51.121 17.148 84.758 17.148 84.758s70.614-42.606 134.911-115.195c86.425-42.883 145.017-125.619 145.017-220.719z" fill="#e6e6e6" p-id="5662" data-spm-anchor-id="a313x.7781069.0.i2" class=""></path><path d="M750.037 467.922c0 209.425-237.939 352.71-237.939 352.71s-131.41-587.85 0-587.85 237.939 105.276 237.939 235.14z" fill="#FFFFFF" p-id="5663"></path><path d="M232.17 484.718a279.928 251.936 0 1 0 559.856 0 279.928 251.936 0 1 0-559.856 0Z" fill="#FFFFFF" p-id="5664"></path><path d="M512.098 484.718m-27.993 0a27.993 27.993 0 1 0 55.986 0 27.993 27.993 0 1 0-55.986 0Z" fill="#4F5D73" p-id="5665"></path><path d="M624.069 484.718m-27.993 0a27.993 27.993 0 1 0 55.986 0 27.993 27.993 0 1 0-55.986 0Z" fill="#4F5D73" p-id="5666"></path><path d="M400.126 484.718m-27.993 0a27.993 27.993 0 1 0 55.986 0 27.993 27.993 0 1 0-55.986 0Z" fill="#4F5D73" p-id="5667"></path></svg>